# xmcd
#
# Track frame offsets:
#	150
#	14675
#	27771
#	42608
#	57347
#	70526
#	85121
#	97854
#	111619
#	126335
#	141601
#	157052
#	171545
#	184361
#	197262
#	211853
#
# Disc length: 3022 seconds
#
# Revision: 1
# Processed by: cddbd v1.4b42PL1 Copyright (c) Steve Scherf et al.
# Submitted via: audiograbber 1.80
#
DISCID=ee0bcc10
DTITLE=Hot Lips Page - Nothing But The Blues - Hot Lips Page
DYEAR=1900
DGENRE=
TTITLE0=You'd Be Frantic Too
TTITLE1=Just Another Woman
TTITLE2=Uncle Sam's Blues
TTITLE3=Thirsty Mama Blues
TTITLE4=Pagin' Mr. Page
TTITLE5=My Fightin' Gal
TTITLE6=Rockin' At Ryans
TTITLE7=Blooey
TTITLE8=I Keep Rollin' On
TTITLE9=Double-Trouble Blues
TTITLE10=Evil Man's Blues
TTITLE11=My Gal Is Gone
TTITLE12=Six, Seven, Eight Or Nine
TTITLE13=The Lady In Bed
TTITLE14=You Need Coachin'
TTITLE15=The Blues Jumped The Rabbit
EXTD=
EXTT0=
EXTT1=
EXTT2=
EXTT3=
EXTT4=
EXTT5=
EXTT6=
EXTT7=
EXTT8=
EXTT9=
EXTT10=
EXTT11=
EXTT12=
EXTT13=
EXTT14=
EXTT15=
PLAYORDER=
